<?xml version="1.0" encoding="UTF-8"?><svg xmlns="http://www.w3.org/2000/svg" viewBox="0 0 131.78 42.37"><g id="a"/><g id="b"><g id="c"><path d="M50.68,15.54v3.39h-7.81v4.82h6.5v3.41h-6.5v7.4h-4.44V15.54h12.25Z"/><path d="M57.1,17.32c0,.32-.07,.62-.2,.91s-.31,.53-.54,.74-.49,.38-.79,.51c-.3,.13-.62,.19-.96,.19s-.64-.06-.93-.19c-.29-.13-.54-.3-.76-.51-.22-.21-.4-.46-.52-.74-.13-.28-.19-.59-.19-.91s.06-.64,.19-.93c.13-.29,.3-.54,.52-.76,.22-.22,.48-.39,.76-.51,.29-.12,.6-.18,.93-.18s.66,.06,.96,.18c.3,.12,.56,.29,.79,.51s.4,.47,.54,.76c.13,.29,.2,.6,.2,.93Zm-.47,3.71v13.54h-4.05v-13.54h4.05Z"/><path d="M59.37,34.57v-13.54h2.4c.2,0,.37,.02,.5,.05,.13,.03,.25,.09,.34,.16,.09,.07,.16,.17,.21,.29,.05,.12,.09,.27,.12,.44l.22,1.27c.5-.77,1.05-1.37,1.67-1.81,.62-.44,1.29-.67,2.02-.67,.62,0,1.11,.15,1.49,.44l-.52,2.98c-.03,.18-.1,.31-.21,.39-.1,.07-.24,.11-.42,.11-.15,0-.32-.02-.52-.06s-.45-.06-.76-.06c-1.06,0-1.9,.57-2.51,1.7v8.3h-4.05Z"/><path d="M69.63,34.57v-13.54h2.51c.25,0,.46,.06,.63,.17,.17,.11,.29,.28,.36,.51l.22,.73c.23-.24,.46-.45,.7-.65,.24-.2,.51-.37,.79-.51,.28-.14,.59-.26,.91-.34,.33-.08,.69-.12,1.08-.12,.82,0,1.5,.21,2.03,.63s.94,.99,1.22,1.69c.23-.42,.5-.77,.83-1.07,.33-.3,.68-.54,1.06-.72,.38-.18,.78-.32,1.2-.4,.42-.09,.84-.13,1.26-.13,.77,0,1.46,.12,2.06,.35,.6,.23,1.1,.57,1.51,1.01,.4,.44,.71,.98,.92,1.62s.31,1.36,.31,2.17v8.6h-4.05v-8.6c0-1.4-.6-2.1-1.8-2.1-.55,0-1,.18-1.36,.54-.36,.36-.54,.88-.54,1.56v8.6h-4.05v-8.6c0-.77-.15-1.32-.46-1.63-.3-.31-.75-.47-1.34-.47-.37,0-.71,.08-1.04,.25-.33,.17-.63,.39-.92,.67v9.79h-4.05Z"/><path d="M91.59,34.57V15.02h4.05v7.44c.5-.5,1.08-.89,1.72-1.19s1.39-.45,2.25-.45c.71,0,1.36,.15,1.96,.46s1.12,.75,1.55,1.34c.44,.59,.78,1.31,1.02,2.16,.25,.85,.37,1.82,.37,2.91,0,1.02-.14,1.96-.42,2.82s-.68,1.61-1.19,2.25c-.51,.64-1.12,1.13-1.83,1.49-.71,.36-1.49,.54-2.36,.54-.4,0-.76-.04-1.08-.12-.32-.08-.61-.19-.87-.33-.27-.14-.51-.32-.73-.52s-.44-.42-.65-.65l-.14,.68c-.06,.28-.17,.47-.33,.57s-.37,.16-.63,.16h-2.69Zm6.61-10.71c-.3,0-.56,.03-.8,.08-.24,.06-.46,.14-.67,.24-.2,.1-.39,.24-.57,.4-.17,.16-.35,.35-.52,.55v5.74c.3,.34,.64,.58,.99,.71s.73,.2,1.12,.2,.72-.07,1.03-.22c.31-.15,.59-.39,.82-.71,.23-.33,.41-.75,.54-1.27s.2-1.16,.2-1.91-.05-1.31-.16-1.8c-.1-.49-.25-.88-.44-1.18-.19-.3-.41-.52-.67-.65-.26-.13-.55-.2-.87-.2Z"/><path d="M112.01,20.82c.9,0,1.72,.14,2.46,.42s1.38,.68,1.92,1.21,.95,1.18,1.25,1.95c.3,.77,.45,1.64,.45,2.62,0,.3-.01,.55-.04,.74-.03,.19-.07,.34-.14,.46-.07,.11-.16,.19-.28,.23-.12,.04-.27,.07-.45,.07h-7.81c.13,1.13,.47,1.95,1.03,2.46,.56,.51,1.28,.76,2.15,.76,.47,0,.87-.06,1.21-.17s.64-.24,.91-.38c.27-.14,.51-.27,.73-.38,.22-.11,.45-.17,.7-.17,.32,0,.57,.12,.73,.35l1.18,1.45c-.42,.48-.87,.87-1.35,1.17-.48,.3-.98,.54-1.49,.7-.51,.17-1.02,.29-1.53,.35-.51,.07-.99,.1-1.46,.1-.95,0-1.84-.15-2.67-.46-.83-.31-1.56-.77-2.18-1.38-.62-.61-1.11-1.37-1.48-2.27-.36-.91-.54-1.96-.54-3.16,0-.91,.15-1.76,.46-2.57,.31-.81,.75-1.52,1.33-2.13,.58-.61,1.28-1.09,2.1-1.45,.82-.36,1.75-.54,2.79-.54Zm.08,2.79c-.77,0-1.38,.22-1.81,.66-.44,.44-.72,1.07-.86,1.9h5.05c0-.32-.04-.64-.12-.94-.08-.3-.22-.58-.4-.82-.19-.24-.43-.43-.74-.58-.3-.15-.67-.22-1.11-.22Z"/><path d="M125.69,20.82c.9,0,1.72,.14,2.46,.42s1.38,.68,1.92,1.21,.95,1.18,1.25,1.95c.3,.77,.45,1.64,.45,2.62,0,.3-.01,.55-.04,.74-.03,.19-.07,.34-.14,.46-.07,.11-.16,.19-.28,.23-.12,.04-.27,.07-.45,.07h-7.81c.13,1.13,.47,1.95,1.03,2.46,.56,.51,1.28,.76,2.15,.76,.47,0,.87-.06,1.21-.17s.64-.24,.91-.38c.27-.14,.51-.27,.73-.38,.22-.11,.45-.17,.7-.17,.32,0,.57,.12,.73,.35l1.18,1.45c-.42,.48-.87,.87-1.35,1.17-.48,.3-.98,.54-1.49,.7-.51,.17-1.02,.29-1.53,.35-.51,.07-.99,.1-1.46,.1-.95,0-1.84-.15-2.67-.46-.83-.31-1.56-.77-2.18-1.38-.62-.61-1.11-1.37-1.48-2.27-.36-.91-.54-1.96-.54-3.16,0-.91,.15-1.76,.46-2.57,.31-.81,.75-1.52,1.33-2.13,.58-.61,1.28-1.09,2.1-1.45,.82-.36,1.75-.54,2.79-.54Zm.08,2.79c-.77,0-1.38,.22-1.81,.66-.44,.44-.72,1.07-.86,1.9h5.05c0-.32-.04-.64-.12-.94-.08-.3-.22-.58-.4-.82-.19-.24-.43-.43-.74-.58-.3-.15-.67-.22-1.11-.22Z"/><g><path d="M29.22,25.11c-.12-6.83-3.81-11.21-8.52-13.19v-1.87c0-.59-.28-1.11-.71-1.44,.41-.65,.41-1.67,.35-2.43,0-.82-.61-1.5-1.41-1.62C16.93,1.48,14.1-.69,11.67,.2c-2.43,.86-4.01,2.9-4.53,4.36-.78,.13-1.38,.8-1.38,1.62-.05,.62-.06,1.41,.16,2.03h-1.17c-1.02,0-1.84,.82-1.84,1.84v2.39c0,1,.8,1.8,1.79,1.83C1.95,16.67,.08,20.29,0,25.11c.18,10.53,8.84,15.27,16.69,14.25l3.29,3-.03-3.77c5.07-1.81,9.14-6.3,9.26-13.48ZM4.42,12.44v-2.39c0-.18,.16-.34,.34-.34h4.52c.18,0,.34,.16,.34,.34v2.39c0,.18-.16,.34-.34,.34H4.76c-.18,0-.34-.16-.34-.34Zm13.31,23.42c-.56,.94-1.47,1.12-2.1,1.11-.19,0-.34-.02-.46-.04-2.59-.55-4.59-1.89-5.97-3.66,1.45,.69,3.32,1.3,5.37,1.3,1.17,0,2.4-.2,3.65-.7-.03,.89-.21,1.53-.49,1.98Zm.5-3.88c-.19,.09-.38,.17-.57,.24-4.46,1.82-8.89-1.02-10.08-1.9-.26-.72-.45-1.47-.57-2.23,1.53,1.03,4.04,2.33,6.92,2.37,.05,0,.09,0,.13,0,.41,0,.82-.04,1.24-.09,.4-.05,.81-.14,1.23-.26,.56-.15,1.13-.35,1.7-.63v2.49Zm-6.78-7.85c-1.91-.49-3.21-1.56-3.81-2.17,.24-.63,.55-1.23,.9-1.81,.96,.66,2.13,1.12,3.51,1.28,.26,.03,.54,.05,.82,.06,.06,0,.12,.01,.19,.01,.3,0,.58-.03,.86-.06,1.79-.19,3.22-.86,4.32-1.81v3.51c-1.95,.98-3.66,1.28-5.11,1.22-.32-.01-.63-.04-.93-.09-.26-.04-.5-.09-.74-.15ZM9.12,5.76h1.1v2.28h-1.1v-2.28Zm10.07,4.3v2.39c0,.09-.04,.17-.1,.23-.06,.07-.15,.11-.24,.11h-4.52c-.18,0-.34-.16-.34-.34v-2.39c0-.18,.16-.34,.34-.34h4.52s.04,0,.05,.01c.06,.04,.12,.07,.17,.12,.04,.06,.07,.12,.1,.18,0,.01,0,.02,0,.03Zm-7.75-2.45v-1.84h1.07v2.29h-1.07v-.45Zm3.35-1.72v2.17h-1.06v-2.29h1.06v.12Zm2.37,.9v1.27h-1.16v-2.29h1.16v1.02Zm-6.04,5.66v-.7c.34-.15,.83-.24,1.37-.01v.71c0,.83,.56,1.53,1.32,1.75,.17,.05,.34,.08,.52,.08h4.52c.1,0,.19-.01,.28-.03-.01,.14-.03,.27-.05,.41-.12,.78-.38,1.54-.77,2.23-.03,0-.05,0-.08,0v.12c-.21,.34-.44,.65-.72,.94-.82,.87-1.94,1.51-3.36,1.75-.35,.06-.72,.1-1.11,.11-.03,0-.06,0-.1,0-1.36-.04-2.49-.42-3.39-1.02-.23-.16-.46-.32-.66-.51-.21-.19-.4-.4-.57-.61-.78-.96-1.24-2.15-1.36-3.38h2.32c1.02,0,1.84-.82,1.84-1.84Zm1.55-3.17c-.11,.24-.18,.5-.18,.79v.14c-.49-.1-.95-.08-1.37,.02v-.16c0-.28-.07-.55-.18-.79h1.74Zm-5.57,14.49c.95,.78,2.45,1.73,4.42,2.14,.25,.05,.52,.1,.79,.13,.31,.04,.63,.06,.96,.07,.08,0,.16,.01,.24,.01,1.4,0,2.98-.3,4.71-1.06v2.48c-1.23,.76-2.45,1.12-3.62,1.21-.38,.03-.75,.04-1.12,.02-.35-.02-.7-.07-1.03-.13-2.73-.49-4.88-2.14-5.6-2.75,.02-.72,.1-1.43,.25-2.13Zm12.83,6.84v-11.99c6.83,.91,6.83,11.08,0,11.99Zm-1.2-22.56s-.02,.01-.04,.01h-.31v-2.29h.31c.23,0,.37,.2,.42,.42,.04,.16,.28,1.82-.39,1.86ZM7.4,5.76h.5v2.29h-.5s-.03,0-.04,0c-.21-.02-.35-.2-.39-.42-.03-.21-.3-1.9,.42-1.87Zm9.93-1.33H8.55C10.6,.79,14.34-.17,17.33,4.43Z"/><path d="M16.24,15.95l-.86-.4-.47-.22s-.1,.19-.23,.37c-.34,.47-1.08,1.14-2.31,.88-.1-.02-.19-.03-.3-.06l-.09,.27-.36,1.12c.46,.15,.89,.21,1.29,.21,1.8,0,2.93-1.33,3.32-2.18Z"/><path d="M16.98,10.8s-.03,.06-.05,.09c-.21,.35-.83,.31-.94-.12-.01-.05-.03-.09-.02-.15,0-.33,.24-.49,.49-.51-.62-.35-1.56-.15-1.82,.59-.05,.13-.08,.28-.08,.44-.02,1.61,2.5,1.61,2.47,0,0-.09-.02-.18-.03-.26,0-.03,0-.07-.01-.1Z"/><path d="M7.05,12.35c.68,.08,1.43-.31,1.41-1.19,0-.17-.03-.31-.07-.44-.07,.46-.67,.54-.92,.24-.07-.08-.12-.19-.12-.33,0-.34,.26-.51,.52-.51-.28-.15-.63-.2-.95-.13-.51,.11-.95,.5-.94,1.17,0,.29,.08,.53,.21,.71,.2,.28,.51,.44,.85,.48Z"/></g></g></g></svg>